<?xml version="1.0" standalone="no"?>
<!DOCTYPE svg PUBLIC "-//W3C//DTD SVG 20010904//EN"
 "http://www.w3.org/TR/2001/REC-SVG-20010904/DTD/svg10.dtd">
<svg version="1.0" xmlns="http://www.w3.org/2000/svg"
 width="300.000000pt" height="300.000000pt" viewBox="0 0 300.000000 300.000000"
 preserveAspectRatio="xMidYMid meet">
<metadata>
Created by potrace 1.11, written by Peter Selinger 2001-2013
</metadata>
<g transform="translate(0.000000,300.000000) scale(0.100000,-0.100000)"
fill="#000000" stroke="none">
<path d="M1568 2854 c-4 -4 -63 -8 -130 -10 -68 -2 -139 -6 -158 -9 -19 -3
-53 -7 -76 -9 -43 -5 -111 -21 -154 -36 -14 -5 -38 -11 -55 -13 -16 -3 -66
-13 -110 -22 l-80 -18 -85 -89 c-47 -48 -90 -88 -94 -88 -9 0 -45 -42 -46 -53
0 -4 8 -7 17 -5 19 3 40 -50 30 -77 -7 -15 -19 -15 -79 0 -26 7 -28 5 -28 -23
0 -16 7 -35 15 -42 13 -11 21 -40 11 -40 -2 0 -17 7 -32 15 -35 18 -57 19 -51
3 2 -7 12 -13 22 -13 10 0 20 -6 23 -14 3 -10 0 -12 -12 -8 -9 4 -23 10 -31
13 -26 11 -16 -11 13 -28 32 -19 40 -52 10 -42 -10 3 -18 1 -18 -5 0 -6 4 -11
8 -11 9 0 32 -44 32 -60 0 -11 -35 -8 -46 3 -14 14 -32 7 -27 -11 5 -23 -21
-47 -39 -36 -13 8 -119 6 -127 -2 -9 -9 70 -74 88 -74 11 0 23 -4 26 -10 12
-20 -49 -10 -72 12 -13 12 -32 23 -43 25 -11 1 -24 4 -31 5 -10 3 -43 -82 -34
-90 2 -2 -4 -25 -14 -51 -11 -25 -20 -66 -22 -91 -4 -40 -2 -45 16 -42 11 1
34 4 50 6 17 2 52 7 79 11 37 6 48 5 44 -5 -6 -19 -98 -50 -150 -50 -37 0 -48
-4 -48 -15 0 -9 -7 -27 -16 -40 -9 -14 -13 -25 -10 -25 4 0 0 -13 -9 -30 -19
-37 -19 -41 2 -33 16 6 16 4 -1 -15 -19 -22 -19 -22 11 -22 18 0 38 9 52 24
17 18 33 25 62 24 42 0 48 -8 23 -29 -10 -8 -14 -22 -11 -39 4 -19 0 -29 -14
-38 -11 -7 -19 -8 -19 -2 0 5 5 10 10 10 6 0 10 5 10 10 0 15 -37 12 -63 -4
-17 -11 -63 -22 -107 -26 -3 0 -6 -16 -6 -35 -1 -31 1 -34 20 -29 11 3 30 -2
41 -10 19 -14 19 -15 1 -35 -29 -32 -11 -37 24 -7 30 25 60 33 73 19 4 -3 -1
-12 -10 -18 -13 -10 -15 -16 -6 -26 9 -12 10 -29 4 -70 -1 -3 -18 -13 -38 -23
l-37 -18 24 -19 c14 -10 30 -17 35 -15 18 6 45 -14 45 -34 0 -10 6 -20 13 -23
8 -3 6 -10 -8 -20 -65 -50 -63 -46 -27 -47 33 0 33 0 26 -37 -4 -22 -19 -50
-35 -67 -16 -15 -29 -37 -29 -48 0 -17 3 -17 35 8 l36 27 -5 -24 c-9 -47 -24
-75 -50 -88 -27 -15 -35 -31 -13 -31 18 1 48 26 61 51 13 25 62 49 53 25 -3
-7 -1 -18 4 -23 7 -7 -1 -20 -23 -38 -18 -15 -37 -34 -42 -43 -9 -15 5 -14 66
4 13 4 16 1 12 -10 -9 -23 14 -20 28 4 7 11 18 20 25 20 17 0 17 -16 1 -23
-16 -6 -52 -67 -41 -67 5 0 26 9 48 20 48 25 56 19 19 -14 -23 -21 -26 -27
-15 -35 11 -7 10 -15 -9 -46 -25 -41 -24 -45 20 -54 l31 -6 -25 -38 -25 -37
28 0 c25 0 28 -3 24 -21 -5 -18 -3 -20 14 -15 23 7 78 -38 67 -55 -3 -6 -9
-27 -11 -46 -5 -32 -3 -34 15 -24 34 18 34 13 -3 -41 -45 -65 -34 -79 34 -39
57 34 69 38 52 17 -9 -11 -7 -15 11 -19 12 -4 28 -1 35 5 8 6 26 12 41 13 15
2 64 17 109 35 74 28 82 34 73 50 -6 12 -7 21 0 25 5 3 7 12 4 20 -3 7 3 18
14 24 11 6 27 18 35 26 22 21 107 65 127 65 40 0 27 -30 -46 -103 -51 -51 -95
-108 -139 -182 -36 -60 -63 -111 -60 -113 3 -3 6 -3 8 -1 2 2 23 34 46 72 57
88 123 154 179 178 25 11 47 17 50 14 6 -6 -38 -55 -50 -55 -16 0 -103 -78
-95 -86 2 -3 31 13 62 35 32 23 66 41 76 41 10 0 23 8 28 19 10 18 67 34 85
23 5 -3 -4 -16 -20 -29 -22 -17 -25 -23 -11 -23 23 0 22 -5 -9 -46 -34 -44
-22 -43 29 3 25 22 42 32 45 24 2 -6 0 -17 -6 -24 -5 -7 -12 -20 -15 -30 -6
-16 -5 -16 20 0 24 16 26 16 39 -1 8 -11 21 -17 32 -14 24 7 52 -8 52 -28 0
-11 8 -14 28 -12 23 3 27 -1 28 -25 1 -36 7 -40 37 -26 21 9 30 9 41 0 11 -9
20 -10 35 -2 11 6 42 16 69 22 36 7 60 21 84 45 18 18 36 34 40 34 4 0 22 14
40 30 18 17 37 30 42 30 5 0 25 -12 44 -27 19 -14 58 -32 86 -39 28 -6 59 -15
69 -19 14 -6 20 -2 24 14 5 21 7 21 30 5 24 -15 26 -15 58 20 21 23 35 50 38
74 3 20 7 51 10 68 7 38 -15 62 -55 62 -19 0 -28 -6 -30 -21 -2 -11 -10 -21
-19 -23 -9 -1 -26 -5 -37 -8 -11 -4 -23 -2 -27 4 -14 22 -150 2 -167 -26 -4
-6 -19 -9 -33 -6 -15 2 -25 0 -25 -7 0 -6 -7 -11 -15 -11 -8 0 -15 4 -15 9 0
9 -29 16 -105 26 -16 2 -47 6 -69 9 -21 3 -47 1 -56 -4 -10 -6 -25 -7 -34 -4
-25 10 2 42 31 36 14 -3 29 2 36 11 17 22 86 58 106 55 9 -1 28 6 43 16 16 10
34 16 41 13 18 -7 41 8 33 21 -3 6 -23 16 -44 23 -20 6 -58 22 -84 36 -62 30
-64 49 -5 44 24 -3 21 16 -5 25 -12 3 -30 15 -41 25 -11 10 -24 16 -30 12 -21
-13 -25 22 -6 56 10 20 19 42 19 49 0 18 30 62 42 62 6 0 8 -7 4 -15 -6 -16
62 -95 82 -95 6 0 25 20 42 45 17 25 39 46 48 46 45 4 100 -5 132 -21 19 -9
41 -15 48 -13 21 8 52 -28 52 -59 0 -21 -7 -32 -26 -40 -23 -11 -24 -13 -9
-24 15 -11 15 -15 1 -41 -9 -18 -11 -35 -6 -43 5 -8 7 -26 4 -40 -4 -21 2 -29
39 -51 37 -22 45 -24 53 -12 8 12 16 11 57 -6 27 -12 63 -24 80 -27 18 -3 44
-17 58 -30 21 -20 41 -27 88 -31 34 -3 64 -10 67 -14 7 -12 24 -12 24 0 0 10
-111 70 -124 68 -5 -1 -12 8 -17 20 -10 27 12 47 43 40 36 -8 200 -80 231
-101 45 -31 42 -10 -4 23 -23 17 -46 31 -51 31 -4 0 -8 5 -8 11 0 6 8 8 19 4
11 -3 22 -1 26 5 3 5 -2 10 -13 10 -11 0 -39 7 -62 15 -24 8 -52 17 -64 19
-27 5 -76 24 -76 30 0 20 34 76 50 81 11 4 18 10 15 15 -10 17 30 27 85 23 74
-7 124 -34 151 -83 20 -35 94 -88 107 -75 9 9 -11 44 -28 50 -10 3 -22 15 -25
26 -4 10 -13 19 -20 19 -8 0 -21 10 -29 21 -8 12 -29 30 -46 40 -17 11 -29 23
-26 28 3 4 34 9 69 10 77 2 164 -30 173 -64 3 -12 17 -28 31 -37 25 -15 27
-14 55 14 17 17 27 36 24 45 -3 8 -1 23 5 35 8 15 7 24 -5 37 -8 9 -15 25 -15
36 -1 49 -8 92 -18 110 -6 11 -8 35 -5 54 4 27 2 33 -10 28 -11 -4 -15 3 -16
26 0 17 -7 34 -15 38 -9 6 -13 26 -12 66 2 46 -2 63 -19 82 -20 24 -20 24 -1
17 33 -12 37 -12 40 7 2 13 -6 22 -25 28 -36 13 -47 39 -20 46 19 5 29 23 12
23 -4 0 -26 16 -47 36 l-40 36 25 13 c17 9 30 10 42 4 15 -8 18 -6 18 14 0 14
7 30 15 37 14 12 13 17 -12 42 -27 29 -27 30 -9 44 19 14 19 15 -3 55 -17 30
-21 49 -17 75 5 22 3 34 -4 34 -22 0 -35 25 -34 65 0 23 -6 48 -14 58 -15 16
-14 18 6 24 27 7 24 24 -7 39 -14 7 -19 14 -12 18 7 5 5 16 -6 33 -17 26 -17
26 4 21 25 -7 32 6 24 44 -6 26 -6 26 -46 12 -45 -15 -65 -12 -65 11 0 9 -7
27 -16 40 -15 23 -15 25 0 31 14 5 13 10 -7 34 -12 16 -30 29 -40 29 -13 1
-16 7 -11 25 5 21 1 24 -30 30 -42 8 -43 12 -13 37 17 14 19 18 6 19 -9 0 -22
-7 -29 -15 -14 -17 -29 -19 -50 -5 -14 9 -13 15 21 82 5 11 4 18 -4 21 -9 3
-8 12 4 33 19 31 60 42 78 20 6 -8 21 -12 31 -9 15 4 20 0 20 -14 0 -11 8 -31
19 -44 19 -25 36 -82 32 -110 -1 -9 5 -19 14 -22 8 -4 15 -17 15 -30 0 -22 27
-57 44 -57 4 0 5 23 2 51 -8 75 -17 119 -25 119 -4 0 -15 15 -26 32 -10 18
-31 43 -46 56 -15 12 -47 51 -70 85 -56 82 -109 136 -109 111 0 -37 -32 -102
-53 -108 -34 -9 -38 4 -12 38 31 41 45 99 22 90 -21 -8 -67 24 -67 46 0 37
-24 41 -54 9 -34 -36 -41 -33 -28 14 6 20 7 38 4 41 -9 10 -42 7 -42 -4 0 -5
-4 -10 -10 -10 -5 0 -10 6 -10 14 0 18 -8 23 -44 30 -16 3 -38 11 -50 19 -15
10 -55 13 -146 12 -77 -1 -139 3 -161 11 -19 6 -64 15 -100 18 -35 3 -78 9
-94 12 -17 3 -34 2 -37 -2z m-863 -324 c3 -5 2 -10 -4 -10 -5 0 -13 5 -16 10
-3 6 -2 10 4 10 5 0 13 -4 16 -10z m1801 -42 c-22 -12 -49 1 -35 18 8 10 15
11 30 1 15 -9 16 -13 5 -19z m-76 18 c0 -3 -4 -8 -10 -11 -5 -3 -10 -1 -10 4
0 6 5 11 10 11 6 0 10 -2 10 -4z m-1645 -46 c3 -5 1 -10 -4 -10 -6 0 -11 5
-11 10 0 6 2 10 4 10 3 0 8 -4 11 -10z m-235 -230 c0 -5 -7 -7 -15 -4 -8 4
-12 10 -9 15 6 11 24 2 24 -11z m2038 -62 c-5 -16 -48 -24 -48 -9 0 8 17 16
43 20 5 0 7 -5 5 -11z m-2218 -78 c0 -5 -4 -10 -10 -10 -5 0 -10 5 -10 10 0 6
5 10 10 10 6 0 10 -4 10 -10z m1930 -90 c0 -5 -5 -10 -11 -10 -5 0 -7 5 -4 10
3 6 8 10 11 10 2 0 4 -4 4 -10z m-160 -90 c0 -5 -5 -10 -11 -10 -5 0 -7 5 -4
10 3 6 8 10 11 10 2 0 4 -4 4 -10z m560 -155 c0 -19 -41 -37 -55 -23 -7 6 -3
14 9 24 26 18 46 18 46 -1z m-155 -155 c3 -6 17 -7 30 -4 13 3 33 0 45 -6 16
-9 25 -9 33 -1 13 13 37 15 37 3 0 -5 -19 -15 -42 -23 -32 -10 -42 -11 -46 -1
-5 16 -17 15 -55 -2 -18 -8 -41 -17 -52 -21 -27 -10 -115 -14 -115 -5 0 4 18
15 40 25 22 10 45 24 51 32 13 15 65 18 74 3z m-1050 -64 c8 -23 9 -38 2 -45
-5 -5 -9 -21 -9 -36 0 -26 -22 -45 -52 -45 -11 0 -16 9 -16 30 0 17 -4 30 -10
30 -19 0 2 29 23 32 20 3 22 8 19 53 -3 47 -2 49 14 33 9 -9 23 -33 29 -52z
m491 -61 c3 -14 10 -25 15 -25 5 0 7 -11 3 -24 -12 -49 41 -35 58 15 2 5 18
12 36 14 18 2 37 7 43 10 19 12 97 7 126 -9 61 -31 60 -53 -8 -138 -16 -20
-29 -39 -29 -42 0 -8 53 4 67 16 19 15 17 -7 -3 -37 -18 -28 -67 -46 -109 -40
-16 2 -37 4 -45 5 -8 0 -36 19 -61 43 -26 23 -72 55 -103 70 -31 16 -62 38
-70 49 -13 19 -13 25 5 60 11 21 17 44 13 49 -10 16 17 29 38 18 10 -5 21 -21
24 -34z m-586 -50 c0 -14 -4 -25 -10 -25 -5 0 -10 11 -10 25 0 14 5 25 10 25
6 0 10 -11 10 -25z m-110 -35 c11 0 20 -10 24 -25 4 -16 20 -31 44 -43 20 -9
37 -22 37 -29 0 -6 -30 -42 -67 -80 -49 -52 -74 -70 -95 -71 -15 0 -50 -3 -77
-5 -63 -5 -86 1 -86 22 0 10 -14 43 -31 74 -39 72 -36 103 11 131 27 15 54 20
119 20 66 1 85 4 89 16 4 11 7 11 10 3 2 -7 12 -13 22 -13z m1155 -210 c3 -5
1 -10 -4 -10 -6 0 -11 -4 -11 -10 0 -5 6 -7 13 -4 9 3 13 -3 13 -18 -1 -15 5
-23 16 -23 23 0 42 -20 35 -38 -6 -15 -112 -57 -144 -57 -12 0 -23 7 -27 15
-6 17 -36 21 -36 5 0 -5 -16 -2 -35 7 -19 9 -35 22 -35 28 0 7 18 28 41 48 46
41 74 49 64 17 -5 -15 -3 -18 9 -14 9 3 16 12 16 20 0 13 45 43 67 44 6 0 15
-4 18 -10z m-1490 -140 c4 -6 -7 -10 -24 -10 -17 0 -31 5 -31 10 0 6 11 10 24
10 14 0 28 -4 31 -10z m1560 -9 c-2 -5 11 -25 31 -46 19 -21 34 -39 32 -40 -2
-1 -25 -16 -53 -33 -46 -28 -52 -30 -72 -17 -12 8 -29 15 -38 15 -22 0 -19 10
17 47 l32 33 -25 1 c-13 1 -30 1 -36 0 -7 -1 -13 2 -13 6 0 5 26 18 58 29 55
20 78 22 67 5z m-1446 0 c7 -5 11 -13 7 -19 -3 -6 -2 -13 4 -17 19 -12 11 -26
-9 -15 -11 5 -30 10 -43 10 -39 0 -52 14 -33 34 18 17 52 21 74 7z m-195 -53
c-8 -13 -31 -9 -37 6 -4 9 1 16 11 18 18 4 34 -11 26 -24z m-529 13 c6 -11
-29 -33 -39 -24 -7 7 12 33 25 33 4 0 10 -4 14 -9z m645 -25 c33 -20 34 -21
12 -24 -14 -2 -33 5 -46 17 -15 14 -29 18 -46 14 -24 -5 -24 -5 -5 10 21 16
32 14 85 -17z m-62 -42 c21 -14 30 -48 15 -57 -5 -3 -30 -8 -58 -11 -27 -4
-63 -11 -78 -18 -43 -17 -46 0 -4 38 36 33 47 54 28 54 -5 0 -24 -14 -41 -31
-17 -17 -33 -29 -36 -26 -8 8 13 43 23 37 4 -3 12 5 18 18 9 20 14 21 60 16
27 -4 60 -13 73 -20z m1705 -28 c10 -14 30 -26 51 -30 23 -5 36 -13 36 -23 0
-13 -8 -15 -47 -9 -27 4 -64 10 -83 12 -59 8 -66 13 -44 28 10 8 21 13 25 11
3 -2 12 5 19 16 18 25 24 24 43 -5z m-1683 -75 c0 -16 -50 -62 -60 -56 -6 4
-43 1 -81 -5 -51 -9 -74 -9 -82 -1 -13 13 63 49 125 57 24 4 45 8 47 10 8 8
51 4 51 -5z m29 -80 c9 -6 11 -16 5 -32 -4 -13 -8 -27 -9 -31 0 -10 -14 -22
-28 -24 -123 -26 -144 -27 -175 -4 -30 22 -59 66 -50 75 2 3 52 8 109 11 57 4
106 8 108 10 7 7 25 4 40 -5z m6 -101 c3 -5 -1 -10 -10 -10 -9 0 -13 5 -10 10
3 6 8 10 10 10 2 0 7 -4 10 -10z m51 -45 c-17 -17 -176 -72 -196 -68 -8 2 -20
15 -27 28 -9 20 -8 28 4 40 16 17 79 20 88 5 4 -6 11 -7 17 -4 13 8 111 22
121 17 4 -3 1 -10 -7 -18z m-136 -85 c0 -15 -38 -32 -45 -20 -5 8 17 23 43 29
1 1 2 -3 2 -9z m345 -70 c-3 -5 -11 -10 -16 -10 -6 0 -7 5 -4 10 3 6 11 10 16
10 6 0 7 -4 4 -10z m-672 -14 c5 -11 -11 -26 -27 -26 -1 0 -2 9 -2 20 0 23 21
27 29 6z"/>
<path d="M1440 1450 c0 -5 5 -10 10 -10 6 0 10 5 10 10 0 6 -4 10 -10 10 -5 0
-10 -4 -10 -10z"/>
<path d="M2196 1421 c-10 -15 20 -45 39 -37 17 6 17 7 0 26 -20 22 -31 25 -39
11z"/>
<path d="M1152 1329 c2 -7 10 -15 17 -17 8 -3 12 1 9 9 -2 7 -10 15 -17 17 -8
3 -12 -1 -9 -9z"/>
<path d="M1067 1235 c22 -29 63 -48 95 -43 18 3 11 8 -31 23 -29 11 -56 26
-58 32 -3 7 -9 13 -15 13 -5 0 -1 -11 9 -25z"/>
<path d="M845 570 c-3 -6 1 -7 9 -4 18 7 21 14 7 14 -6 0 -13 -4 -16 -10z"/>
<path d="M2497 2423 c-4 -3 -7 -11 -7 -17 0 -6 5 -5 12 2 6 6 9 14 7 17 -3 3
-9 2 -12 -2z"/>
<path d="M392 2358 c3 -7 13 -15 22 -16 12 -3 17 1 14 10 -3 7 -13 15 -22 16
-12 3 -17 -1 -14 -10z"/>
<path d="M161 1566 c-10 -12 -8 -13 9 -9 25 7 37 23 17 23 -8 0 -20 -6 -26
-14z"/>
<path d="M90 1440 c-8 -5 -11 -12 -7 -16 4 -4 13 -2 19 4 15 15 7 24 -12 12z"/>
<path d="M2820 1390 c0 -5 5 -10 11 -10 5 0 7 5 4 10 -3 6 -8 10 -11 10 -2 0
-4 -4 -4 -10z"/>
<path d="M2470 630 c0 -5 10 -10 23 -10 18 0 19 2 7 10 -19 13 -30 13 -30 0z"/>
<path d="M2750 631 c0 -9 34 -21 60 -21 11 1 10 4 -4 15 -22 16 -56 20 -56 6z"/>
<path d="M1835 580 c-3 -5 1 -10 10 -10 9 0 13 5 10 10 -3 6 -8 10 -10 10 -2
0 -7 -4 -10 -10z"/>
<path d="M2170 475 c0 -10 10 -15 33 -15 30 1 31 1 13 15 -25 19 -46 19 -46 0z"/>
</g>
</svg>
